PathFileType	4	(X/Y/Z)	C:/Users/beibeiliu/ov580/test_trc/User3\sequence.7_training_dense_left.trc
DataRate	CameraRate	NumFrames	NumMarkers	Units	OrigDataRate	OrigDataStartFrame	OrigNumFrames
120	120	22	19	mm	120	60	236
Frame#	Time	ThumbCMC			ThumbMCP			ThumbIP			ThumbTip			IndexMCP			IndexPIP			IndexTip			MiddleMCP			MiddlePIP			MiddleTip			RingMCP			RingPIP			RingTip			PinkyMCP			PinkyPIP			PinkyTip			BackHand1			BackHand2			BackHand3	
		X0	Y0	Z0	X1	Y1	Z1	X2	Y2	Z2	X3	Y3	Z3	X4	Y4	Z4	X5	Y5	Z5	X6	Y6	Z6	X7	Y7	Z7	X8	Y8	Z8	X9	Y9	Z9	X10	Y10	Z10	X11	Y11	Z11	X12	Y12	Z12	X13	Y13	Z13	X14	Y14	Z14	X15	Y15	Z15	X16	Y16	Z16	X17	Y17	Z17	X18	Y18	Z18	
59	0.491667	-181.131	43.3314	40.8454	-161.144	54.5365	13.0915	-150.44	56.2264	-15.3495	-153.245	37.5429	-36.2324	-201.581	77.7842	-31.1173	-190.837	93.117	-51.2392	-181.215	98.7743	-69.9929	-183.438	48.3133	-43.1674	-153.328	43.4777	-35.5455	-167.4	26.0767	-2.50586	-180.099	27.2166	-39.4427	-154.485	21.1278	-22.4756	-169.839	14.1913	7.35743	-185.492	7.42743	-37.3854	-159.46	5.95932	-20.5935	-171.89	2.87988	2.4892	-224.795	9.3284	-2.45692	-227.038	-4.02249	24.4825	-219.423	37.1875	26.5764	
60	0.5	-176.912	40.4228	44.6625	-157.303	52.2263	17.7268	-146.912	56.0876	-15.9612	-154.274	38.9287	-32.9378	-197.796	78.2439	-19.2538	-187.808	94.1852	-41.0211	-174.502	106.235	-64.6239	-182.508	57.0058	-35.0707	-153.872	44.6477	-33.0446	-168.01	28.9166	4.74498	-182.36	32.0641	-36.294	-156.705	18.9165	-23.5284	-167.669	14.7599	5.85408	-187.32	14.906	-35.8279	-162.659	6.68655	-24.2751	-171.839	-0.137561	3.61801	-224.263	19.9808	-0.734967	-225.902	0.0556135	29.3592	-215.724	34.0083	29.3817	
61	0.508333	-172.599	38.2785	47.2107	-150.567	50.8851	21.9586	-141.4	54.6877	-8.40266	-151.933	38.8547	-33.0563	-193.889	81.0561	-13.0974	-181.898	98.9952	-33.3703	-167.587	113.51	-50.3427	-179.064	59.7984	-30.4517	-152.559	43.0057	-26.9591	-168.605	28.24	5.79248	-183.855	33.889	-33.1705	-156.855	21.8601	-22.1867	-171.777	11.8266	7.22451	-186.773	17.4671	-36.9352	-163.612	9.22029	-22.3614	-175.593	3.76703	3.35246	-223.75	23.0054	1.87201	-225.175	3.39054	28.2205	-212.998	38.4586	39.1875	
62	0.516667	-169.568	32.935	51.1083	-147.749	48.4272	23.5626	-140.265	51.6487	-2.84093	-154.01	39.096	-27.5059	-187.443	87.7274	-5.16251	-176.053	103.828	-20.7527	-161.38	116.745	-42.6069	-178.492	64.0569	-22.8158	-149.858	46.2464	-21.0611	-168.435	26.3673	5.91469	-181.81	40.4737	-29.5758	-156.807	26.2007	-21.9864	-172.079	13.7682	8.50295	-189.747	25.0849	-33.2141	-165.817	12.2863	-23.5026	-178.124	2.45294	4.31494	-224.109	26.6647	12.1026	-224.225	6.25549	33.0035	-209.492	37.3843	42.1212	
63	0.525	-167.657	29.8967	52.3427	-144.974	46.1278	28.9216	-139.312	53.0289	0.0207563	-153.221	42.397	-23.3156	-183.5	89.7342	4.68372	-170.576	108.818	-13.3704	-156.009	122.495	-30.9826	-175.958	67.849	-18.5533	-150.002	51.1732	-20.2667	-166.203	30.0357	10.4197	-184.402	47.5606	-23.2602	-157.593	29.3507	-20.1468	-170.414	14.2366	6.24459	-192.58	33.2135	-27.6946	-167.695	16.5896	-24.7961	-177.437	7.95917	4.25001	-221.417	31.6215	16.2979	-227.91	4.36685	33.9047	-207.462	39.8499	46.692	
64	0.533333	-168.528	28.9525	52.3671	-142.547	43.453	32.8336	-136.967	56.5982	-1.05589	-151.346	45.4326	-20.8913	-182.267	92.5781	8.76288	-168.769	112.247	-7.24713	-155.13	124.6	-20.2539	-175.57	72.9657	-12.4679	-150.41	51.2269	-18.1178	-167.185	29.3935	9.93643	-183.613	50.8418	-23.8134	-159.077	32.3646	-22.0337	-169.044	17.377	7.47733	-191.085	36.9289	-24.756	-167.694	20.4526	-22.5979	-178.888	4.97054	1.44691	-222.435	32.6226	18.0006	-224.879	6.72758	35.9096	-204.04	37.4967	49.4698	
65	0.541667	-166.385	28.2514	53.3844	-144.009	46.5563	29.1823	-136.842	52.987	3.47118	-151.142	48.1846	-21.6946	-183.088	90.0762	15.513	-170.573	111.157	-4.61552	-157.126	127.327	-21.82	-176.636	73.913	-10.7038	-153.313	52.4743	-19.9189	-165.635	28.8183	5.38075	-182.353	53.8409	-18.6645	-159.921	32.829	-19.5453	-170.345	16.1865	6.52081	-190.117	38.0022	-24.695	-170.773	19.3665	-23.309	-177.511	9.90992	5.39716	-221.712	31.1272	21.4745	-227.679	8.5258	36.0052	-206.308	35.6538	51.0021	
66	0.55	-164.323	29.1442	53.5362	-142.278	45.9906	30.4248	-138.923	55.8211	-0.435468	-152.574	49.7605	-26.2423	-185.259	89.6411	16.0554	-175.048	110.741	-2.79796	-162.456	126.537	-21.4903	-180.89	72.1384	-13.1041	-153.689	57.7565	-20.4233	-167.632	29.2601	8.19615	-186.106	51.6377	-19.7947	-163.653	30.9048	-22.901	-168.512	16.1164	5.18633	-197.631	35.4125	-24.3538	-172.585	21.7559	-22.0238	-181.629	5.39086	2.36668	-223.253	30.8949	24.2737	-225.031	6.5555	37.9971	-205.706	35.3635	53.4614	
67	0.558333	-164.883	30.8933	52.7132	-145.314	45.7385	27.086	-141.582	57.4585	-4.65113	-160.069	46.8582	-26.963	-192.162	86.8691	10.4188	-182.778	107.471	-6.30167	-173.262	124.19	-24.7302	-186.688	67.3203	-14.0159	-159.389	51.2221	-22.4011	-168.731	26.719	5.13375	-190.941	48.1414	-20.4911	-166.07	27.9677	-20.2158	-172.383	15.1136	8.043	-196.613	31.2466	-26.5833	-174.587	15.6826	-20.4145	-184.87	6.39197	7.12622	-226.524	28.1094	23.7523	-223.841	5.17808	39.6782	-205.981	34.4223	52.2367	
68	0.566667	-165.561	29.7577	49.8428	-148.069	46.5146	22.1675	-148.918	54.5422	-6.14924	-163.333	46.5757	-32.2328	-198.077	86.2368	4.95635	-193.02	106.177	-16.1564	-188.11	117.375	-35.2809	-193.735	63.602	-18.1762	-167.422	48.5663	-27.7335	-169.608	25.9086	4.38989	-197.374	44.2506	-20.5117	-171.28	25.3441	-23.0497	-175.616	9.10127	4.50939	-203.68	24.3863	-28.0429	-178.024	13.051	-20.7996	-183.597	4.14459	6.49167	-227.975	26.4298	21.9855	-227.369	0.0133861	41.3543	-207.453	32.068	48.9741	
69	0.575	-170.559	28.0157	45.2409	-156.43	47.2734	15.6247	-155.88	55.8873	-13.7458	-168.629	45.1845	-37.0233	-205.406	83.5214	0.165489	-204.075	98.8868	-24.0768	-201.61	110.026	-44.3395	-199.469	56.8842	-24.8037	-174.077	43.11	-32.5256	-175.316	22.4475	3.52655	-203.747	34.466	-25.7726	-177.837	19.6511	-27.9725	-176.824	9.06036	4.45202	-207.815	18.1366	-29.596	-181.984	9.0641	-22.4711	-184.034	-2.60516	3.77323	-232.444	17.4987	23.5029	-225.893	-7.19529	44.1155	-209.665	29.3334	48.0587	
70	0.583333	-171.854	32.845	41.5615	-163.507	46.2471	11.8652	-163.037	54.4267	-19.925	-177.142	42.518	-42.0395	-216.416	77.9462	-6.9998	-216.532	91.7206	-26.3397	-218.047	101.618	-55.8038	-207.519	52.8556	-26.2628	-181.14	38.6129	-37.1356	-176.825	23.5672	-0.636424	-211.089	27.9893	-29.1323	-179.814	15.9611	-26.8006	-182.499	7.29637	6.48826	-211.881	10.3632	-31.8365	-187.508	0.552164	-26.6402	-186.92	-1.83542	6.11454	-236.198	13.8766	19.8533	-223.394	-4.71999	45.4452	-212.028	28.6315	45.6532	
71	0.591667	-178.378	37.1891	33.8718	-165.871	49.5657	6.97585	-171.98	52.5241	-24.8405	-182.694	39.5749	-48.2558	-228.505	66.9354	-16.629	-231.207	81.8379	-40.2629	-233.625	90.2132	-65.6573	-217.433	45.9905	-32.9918	-186.775	36.3636	-41.8603	-183.379	20.7931	-2.93338	-213.824	23.7202	-33.5111	-188.1	12.7741	-34.3493	-186.342	5.96102	3.21449	-220.634	3.3638	-30.7893	-191.198	-0.668572	-27.3364	-188.159	-3.61484	4.40262	-239.323	11.1544	16.7067	-227.539	-6.3759	42.8947	-215.696	32.0154	41.2611	
72	0.6	-181.203	37.3507	31.7088	-174.015	50.7832	0.170467	-177.386	54.1441	-32.3583	-190.987	35.0762	-50.3002	-238.393	60.2499	-23.23	-244.733	69.3393	-46.4606	-247.776	77.6472	-70.1179	-223.606	36.0416	-41.432	-193.312	25.4955	-46.282	-188.239	16.9895	-10.1161	-220.983	15.301	-37.7082	-190.511	8.01846	-35.9331	-188.872	7.17715	-0.79662	-224.293	0.208014	-32.3791	-195.737	-5.61578	-31.2582	-191.36	-9.18024	0.760782	-243.648	4.56458	16.7137	-228.239	-7.87778	44.3691	-221.042	27.5202	37.0768	
73	0.608333	-190.216	38.1773	26.9696	-186.954	50.299	-6.43917	-189.549	49.1178	-39.8619	-194.65	31.119	-56.8992	-246.103	52.285	-28.4906	-254.812	60.3937	-54.351	-261.563	59.9202	-80.8436	-229.676	30.2149	-44.0306	-200.301	22.1385	-52.6327	-193.318	14.8125	-11.3161	-226.666	9.76969	-39.5754	-193.736	4.95038	-37.0448	-193.835	4.50654	-3.05435	-223.892	-7.57096	-37.4278	-196.821	-11.4442	-31.5569	-197.54	-5.45901	-0.491623	-246.124	3.30801	11.9366	-233.889	-11.9145	37.3257	-228.5	26.2208	30.3022	
74	0.616667	-201.307	38.5225	20.8695	-193.686	52.745	-12.4271	-196.686	44.842	-45.3311	-198.645	25.8055	-61.6577	-254.014	39.8891	-37.0286	-262.662	42.0495	-62.5714	-268.041	44.8437	-88.4242	-232.717	20.2889	-51.5863	-202.106	16.0697	-54.8302	-194.4	16.6986	-16.3932	-228.657	2.22354	-41.9023	-193.907	-1.78387	-38.4838	-194.318	1.94364	-8.89591	-223.973	-18.4004	-38.1555	-199.029	-13.1077	-33.9936	-198.779	-7.09031	-3.31298	-246.818	-8.43706	10.1235	-235.492	-10.0394	39.0547	-235.098	24.5087	26.4909	
75	0.625	-210.34	42.8444	14.7616	-202.464	48.5574	-18.551	-200.24	41.5896	-48.3615	-198.643	17.9911	-63.5157	-258.945	23.3277	-44.0347	-264.779	21.9294	-73.1787	-268.217	23.3332	-97.4431	-234.814	8.98608	-54.7443	-202.128	8.87369	-57.7766	-200.221	13.1072	-16.247	-224.241	-10.5499	-44.9238	-194.282	-2.64809	-41.0979	-198.897	2.12553	-4.83128	-221.575	-24.6485	-35.5904	-194.171	-18.2493	-31.8899	-198.91	-6.29859	-2.82232	-249.882	-10.4486	3.65929	-236.621	-11.9645	38.3986	-242.352	18.4502	23.6677	
76	0.633333	-221.405	41.5664	6.48419	-210.426	46.3635	-24.7089	-205.299	30.3028	-51.7222	-197.944	8.98396	-66.0449	-261.087	12.5201	-49.6886	-265.161	5.62754	-78.2248	-263.036	-3.34103	-101.369	-232.043	-3.84518	-59.2085	-200.355	1.92356	-58.9488	-201.57	12.8234	-21.2681	-222.627	-16.5561	-45.9607	-190.798	-8.73686	-38.3406	-198.282	-0.304713	-8.67625	-212.913	-33.1953	-36.0993	-190.065	-19.6153	-30.2567	-199.543	-7.24652	0.852957	-246.539	-19.9695	5.94061	-239.674	-19.9827	33.9166	-250.544	11.427	14.6089	
77	0.641667	-229.106	33.8578	5.0819	-218.412	37.394	-28.6661	-206.338	24.9262	-55.7205	-196.511	2.67736	-63.6956	-259.388	-6.64414	-52.6879	-261.118	-15.1459	-80.9116	-256.693	-25.3618	-105.353	-231.192	-14.3827	-59.2263	-201.655	-2.51264	-61.1881	-204.939	6.21811	-22.6927	-216.371	-26.1228	-45.3914	-189.871	-11.9681	-36.7076	-202.435	-1.25729	-7.57777	-208.169	-36.8514	-35.0401	-187.802	-18.7231	-27.7996	-199.353	-9.39015	-4.05483	-247.347	-30.7076	4.87975	-238.704	-22.252	35.2832	-254.408	2.5871	11.6661	
78	0.65	-234.851	34.0644	0.708537	-222.269	31.5552	-33.7715	-208.022	17.7182	-55.6371	-196.286	-4.95714	-59.7288	-256.713	-17.3209	-57.0543	-257.116	-25.5293	-80.8475	-250.869	-36.4676	-103.169	-227.701	-26.1082	-55.7692	-197.849	-6.20848	-57.5716	-208.093	6.00274	-23.6274	-216.317	-33.3307	-43.3169	-187.797	-16.7492	-38.1272	-199.354	-3.86321	-11.6735	-207.085	-42.8374	-29.351	-186.13	-20.6535	-26.6788	-198.057	-11.2216	-2.28795	-244.124	-31.4539	6.10965	-239.732	-23.5105	33.2552	-255.506	1.20079	9.01354	
79	0.658333	-236.713	27.9561	-3.04953	-223.03	29.0991	-35.5395	-206.769	14.851	-59.9504	-192.718	-8.58327	-62.3899	-252.762	-24.4175	-56.1509	-249.059	-37.6912	-83.9297	-245.585	-45.2545	-103.521	-223.058	-30.3666	-57.0692	-198.065	-11.1471	-60.8459	-206.706	0.4036	-24.4746	-210.495	-35.8436	-46.5655	-186.925	-19.4246	-38.5128	-200.242	-4.50253	-13.2266	-203.087	-45.8173	-29.8534	-182.439	-26.7044	-28.1212	-195.434	-13.9472	-4.00159	-241.636	-36.9395	6.68607	-242.983	-25.8741	32.2013	-258.065	-4.96466	6.99103	
80	0.666667	-236.92	23.8213	-4.43168	-222.624	29.6459	-36.3962	-206.455	10.3646	-57.6874	-190.314	-8.3987	-60.143	-249.745	-31.0121	-60.988	-243.665	-42.9472	-84.9782	-237.808	-50.3271	-107.987	-219.171	-32.7346	-57.8359	-192.641	-12.8395	-58.0259	-206.966	0.0320916	-25.5531	-209.658	-37.6002	-44.1973	-186.446	-18.8343	-42.1878	-202.71	-4.6187	-13.7533	-195.475	-48.4135	-30.3316	-182.963	-26.5654	-29.3782	-193.31	-14.7854	-3.01634	-240.819	-44.0749	2.00739	-241.454	-25.6152	30.9802	-256.951	-7.50782	5.66362	
